<?xml version="1.0" encoding="iso-8859-1"?>
<!-- Generator: Custom edited by ChatGPT. Original license: CC0, Source: https://www.svgrepo.com/svg/41993/eight -->
<svg version="1.1" id="Layer_1" xmlns="http://www.w3.org/2000/svg" 
     xmlns:xlink="http://www.w3.org/1999/xlink" x="0px" y="0px"
     viewBox="0 0 496.158 496.158" style="enable-background:new 0 0 496.158 496.158;" 
     xml:space="preserve">
  <path style="fill:#56B48C;" d="M248.082,0.003C111.07,0.003,0,111.061,0,248.085
    c0,137,111.07,248.07,248.082,248.07c137.006,0,248.076-111.07,248.076-248.07
    C496.158,111.061,385.088,0.003,248.082,0.003z"/>
  <path style="fill:#FFFFFF;" d="M204.46,136.671h96.048c4.979,0,6.899,3.149,5.75,9.443l-61.865,204.279
    c-1.541,4.884-5.224,7.325-11.051,7.325c-3.979,0-7.226-0.979-9.741-2.936c-2.519-1.958-3.775-4.907-3.775-8.845
    c0-1.883,0.341-3.667,1.028-5.352l56.464-183.342h-72.858c-4.394,0-7.715-0.928-9.961-2.786
    c-2.25-1.855-3.374-4.614-3.374-8.276c0-3.661,1.106-6.435,3.325-8.32C196.222,137.614,199.757,136.671,204.46,136.671z"/>
</svg>